<?xml version="1.0" encoding="utf-8"?>
<!-- Generator: Adobe Illustrator 24.3.0, SVG Export Plug-In . SVG Version: 6.00 Build 0)  -->
<svg version="1.1" id="Layer_1" xmlns="http://www.w3.org/2000/svg" xmlns:xlink="http://www.w3.org/1999/xlink" x="0px" y="0px"
	 viewBox="0 0 12 12" style="enable-background:new 0 0 12 12;" xml:space="preserve">
<style type="text/css">
	.st0{fill:#FFFFFF;}
	.st1{fill:#0079C1;}
</style>
<g>
	<polygon class="st0" points="12,12 6,12 0,12 0,5.9 0,0 6,0 12,0 12,6 12,12 	"/>
	<path class="st1" d="M12,12v-1.9h-1.4L9.8,9.3l-0.7,0.8H4.3V6.3H2.7l1.9-4.3h1.8l0.7,1.5V1.9h2.3L9.8,3l0.4-1.1H12V0H0v12H12L12,12
		z M10.8,9.6H12l-1.6-1.7L12,6.3h-1.2l-1,1.1l-1-1.1H7.7l1.6,1.7L7.7,9.6h1.2l1-1.1L10.8,9.6L10.8,9.6z M11.1,7.9l0.9,1V7L11.1,7.9
		L11.1,7.9z M5.7,8.8V8.3h1.9V7.6H5.7V7h1.9V6.3H4.8v3.4h2.9V8.8H5.7L5.7,8.8z M11.1,5.8H12V2.4h-1.4L9.8,4.5L9.1,2.4H7.7v3.4h0.9
		V3.4l0.9,2.4h0.8l0.9-2.4V5.8L11.1,5.8z M6.6,5.8h1L6.2,2.4H5L3.5,5.8h1l0.3-0.7h1.5L6.6,5.8L6.6,5.8z M6,4.3H5.1l0.5-1.1L6,4.3
		L6,4.3z"/>
</g>
</svg>
